<?xml version="1.0" encoding="utf-8"?>
<svg version="1.1" id="Layer_1" xmlns="http://www.w3.org/2000/svg"  x="0px" y="0px"
	 viewBox="0 0 300 300" style="enable-background:new 0 0 300 300;" xml:space="preserve">
<path fill="#fff" d="M43,45c-11.5,0-21,9.5-21,21v138c0,11.5,9.5,21,21,21h162.5c7.1,17.6,24.5,30,44.5,30c26.4,0,48-21.6,48-48
	c0-20.1-12.4-37.4-30-44.5V66c0-11.5-9.5-21-21-21L43,45z M43,57h204c5.1,0,9,3.9,9,9v93.5c-2-0.2-4-0.5-6-0.5
	c-0.3,0-0.6,0.1-0.8,0.1l-36.4-28.9c-2.2-1.7-5.5-1.6-7.6,0.2l-41.6,35.3L110.4,107c-3.2-2.5-5.4-2.2-8.3-0.5L34,166.7V66
	C34,60.9,37.9,57,43,57z M169,81c-11.5,0-21,9.5-21,21s9.5,21,21,21s21-9.5,21-21S180.5,81,169,81z M169,93c5,0,9,4,9,9s-4,9-9,9
	s-9-4-9-9S164,93,169,93z M105.5,119.4l53.1,58.6c2.1,2.2,5.9,2.4,8.2,0.5l42.4-35.8l24.3,19.3c-18.3,6.8-31.5,24.4-31.5,45
	c0,2,0.2,4,0.5,6H43c-5.1,0-9-3.9-9-9v-21.3L105.5,119.4z M250,171c20,0,36,16,36,36s-16,36-36,36s-36-16-36-36S230,171,250,171z
	 M250,180c-3.3,0-6,2.7-6,6v15h-15c-3.3,0-6,2.7-6,6s2.7,6,6,6h15v15c0,3.3,2.7,6,6,6s6-2.7,6-6v-15h15c3.3,0,6-2.7,6-6s-2.7-6-6-6
	h-15v-15C256,182.7,253.3,180,250,180z"/>
</svg>
